<svg xmlns="http://www.w3.org/2000/svg" width="600" height="340" fill="none">
  <rect width="600" height="340" rx="12" fill="#f8f9fa"/>
  <rect x="40" y="30" width="520" height="280" rx="8" fill="#fff" stroke="#e5e7eb" stroke-width="1.5"/>
  <rect x="40" y="30" width="520" height="44" rx="8" fill="#f9fafb" stroke="#e5e7eb" stroke-width="1.5"/>
  <circle cx="72" cy="52" r="12" fill="#e0f2fe"/>
  <rect x="94" y="46" width="80" height="12" rx="3" fill="#d1d5db"/>
  <rect x="190" y="46" width="60" height="12" rx="3" fill="#e5e7eb"/>
  <rect x="266" y="46" width="70" height="12" rx="3" fill="#e5e7eb"/>
  <rect x="352" y="46" width="50" height="12" rx="3" fill="#0ea5e9"/>
  <rect x="60" y="100" width="120" height="14" rx="4" fill="#1f2937"/>
  <rect x="60" y="128" width="240" height="10" rx="3" fill="#9ca3af"/>
  <rect x="60" y="160" width="480" height="40" rx="6" fill="#f8f9fa" stroke="#d1d5db"/>
  <text x="80" y="184" fill="#6b7280" font-family="monospace" font-size="12">gal_xxxxxxxxxxxxxxxxxxxxxxxx</text>
  <rect x="440" y="166" width="28" height="28" rx="4" fill="#f3f4f6" stroke="#d1d5db"/>
  <rect x="60" y="218" width="100" height="34" rx="6" fill="#0ea5e9"/>
  <text x="110" y="240" text-anchor="middle" fill="#fff" font-family="system-ui" font-size="12" font-weight="600">Copy Key</text>
  <rect x="480" y="166" width="28" height="28" rx="4" fill="#f3f4f6" stroke="#d1d5db"/>
</svg>
